<svg
    xmlns="http://www.w3.org/2000/svg"
    viewBox="0 0 64 56"
    fill="none"
>
    <!-- =========================
         吹き出し：縁取り
    ========================== -->
    <path
        d="
            M12 8
            H50
            C54.4 8 58 11.6 58 16
            V36
            C58 40.4 54.4 44 50 44
            H42
            L34 51
            V44
            H12
            C7.6 44 4 40.4 4 36
            V16
            C4 11.6 7.6 8 12 8
            Z
        "
        stroke="#9D174D"
        stroke-width="8"
        stroke-linejoin="round"
    />

    <!-- =========================
         吹き出し：本体
    ========================== -->
    <path
        d="
            M12 8
            H50
            C54.4 8 58 11.6 58 16
            V36
            C58 40.4 54.4 44 50 44
            H42
            L34 51
            V44
            H12
            C7.6 44 4 40.4 4 36
            V16
            C4 11.6 7.6 8 12 8
            Z
        "
        stroke="#EC4899"
        stroke-width="4"
        stroke-linejoin="round"
    />

    <!-- =========================
         再生ボタン：縁取り
    ========================== -->
    <path
        d="M25 18L42 27L25 36Z"
        stroke="#9D174D"
        stroke-width="7"
        stroke-linejoin="round"
    />

    <!-- =========================
         再生ボタン：本体
    ========================== -->
    <path
        d="M25 18L42 27L25 36Z"
        stroke="#F97316"
        stroke-width="3.5"
        stroke-linejoin="round"
    />
</svg>